PathFileType	4	(X/Y/Z)	Patient4_TMGait_0pt3_01_right_01.trc.trc
DataRate	CameraRate	NumFrames	NumMarkers	Units	OrigDataRate	OrigDataStartFrame	OrigNumFrames
56.910569105691	56.910569105691	5	33	mm	56.910569105691	106	       141
Frame#	Time	Sacral			L.Shoulder			Chest			R.Shoulder			Neck			R.ASIS			L.ASIS			R.Thigh.Superior			R.Thigh.Lateral			R.Thigh.Inferior			R.Patella			L.Thigh.Superior			L.Thigh.Lateral			L.Thigh.Inferior			L.Patella			L.Shank.Superior			L.Shank.Lateral			L.Shank.Inferior			R.Shank.Superior			R.Shank.Lateral			R.Shank.Inferior			R.Heel			R.Midfoot.Superior			R.Midfoot.Lateral			R.Toe			L.Heel			L.Midfoot.Lateral			L.Midfoot.Superior			L.Toe			L.Elbow			L.Wrist			R.Elbow			R.Wrist			
		X1	Y1	Z1	X2	Y2	Z2	X3	Y3	Z3	X4	Y4	Z4	X5	Y5	Z5	X6	Y6	Z6	X7	Y7	Z7	X8	Y8	Z8	X9	Y9	Z9	X10	Y10	Z10	X11	Y11	Z11	X12	Y12	Z12	X13	Y13	Z13	X14	Y14	Z14	X15	Y15	Z15	X16	Y16	Z16	X17	Y17	Z17	X18	Y18	Z18	X19	Y19	Z19	X20	Y20	Z20	X21	Y21	Z21	X22	Y22	Z22	X23	Y23	Z23	X24	Y24	Z24	X25	Y25	Z25	X26	Y26	Z26	X27	Y27	Z27	X28	Y28	Z28	X29	Y29	Z29	X30	Y30	Z30	X31	Y31	Z31	X32	Y32	Z32	X33	Y33	Z33	

106	2.225000000000	799.164227706730	993.492094517244	448.803398890204	970.808571779015	1425.782189980778	259.469432110949	1068.122913547533	1364.310546973883	426.488247655603	976.473012312775	1438.694031581816	595.478333356509	950.563379424198	1491.948433445011	415.913259946948	1029.310818817515	944.536412818119	573.234153188106	1021.930835927045	958.895178805649	298.437657534801	1110.370695834348	766.105212990023	543.705776466781	1065.835354385291	645.217043644946	613.750115782563	1153.199520711886	603.277729429372	532.796831100144	1167.412186947686	490.420991382877	559.075326208255	1078.368543874062	747.016362286917	336.845924580505	993.920554808726	625.293458953346	281.777105253395	1077.193254429664	551.898086469890	350.644272008491	1077.336857268772	480.034342340530	362.439206428431	1041.951870021363	407.018153426741	356.348487818317	942.967616660858	299.837002756865	308.912132663121	980.343403126445	186.590212371108	382.649084944775	1089.542852819551	418.090576452785	568.771582198358	963.124957811201	381.013422054250	620.714577329009	955.419945297405	267.668609199502	579.893829242631	760.227162082431	202.323097580422	534.904638125822	922.038774653700	147.565187789859	602.609025776695	809.231367597796	151.892354076008	620.942641993348	979.714333717167	37.274749136871	648.576227994578	840.857813249395	38.077693775054	428.701069358776	910.741723739466	36.006913908742	344.180521685265	996.482625145519	95.666647275985	369.037303897501	1122.206542889956	42.964501640565	331.472379795500	1052.647279232407	1090.426077268967	128.863868288419	1288.474244550636	978.321352931792	137.011333114368	926.145851911468	1093.919698823127	717.250590880210	978.362694687090	837.914221205617	734.601494037907	
107	2.242571428571	798.417025426823	993.596598938084	446.748674750058	973.356938214560	1426.317603371437	259.721340955768	1068.174993160258	1364.241903199263	427.906069131665	974.252819346455	1438.238285301997	595.786194681357	951.074848772463	1492.110314571039	416.224935887385	1027.419467308300	944.985087186426	573.480386337498	1022.578491794190	958.731706024586	298.578399679787	1110.084810182585	768.096377775768	543.237981880031	1067.108785958910	646.806755911459	613.197447764920	1154.525439724289	605.838992907008	531.992358172229	1170.789664303501	493.852344129226	558.294678803280	1077.493035140353	746.162226090437	337.157314221249	992.444914567957	624.883520318013	281.577196046783	1074.796142148852	551.023894272549	350.861705077816	1074.452570753344	479.197247228879	362.669220412575	1038.654217087820	406.331300878738	356.458736792981	939.218017010131	299.620366943211	308.845906498648	975.669511113043	186.205477866242	382.676340367336	1095.406742940231	419.663811778616	568.109366827739	970.853564722950	377.768784894013	620.291007699989	967.355570876685	264.422416368646	579.148463693610	774.613986962151	189.738860394896	535.100084046567	939.523909846351	144.588552649681	601.699760049602	826.940963289462	142.174164389499	620.624898597448	1003.502570045507	37.996198050713	646.823512278862	835.536415182008	38.096013685975	428.654077594177	905.465948506061	35.998741330660	344.147544304817	991.238822039531	95.612275820081	369.059290441185	1116.971553918366	42.766566662755	331.464543511178	1058.702603665092	1092.699073592485	127.927498260120	1298.163150602915	989.071978942078	137.278409738229	912.064578075863	1095.565167913919	716.436108887032	953.009898920889	837.755462451687	734.560419443782	
108	2.260142857143	797.757549441427	994.009443455049	444.814918079979	976.052574583601	1427.029110275337	260.183908503602	1068.312700272060	1364.381755256399	429.530502685555	972.111862270315	1438.090455007422	596.211240490863	951.676137773318	1492.471957416118	416.690732267895	1025.489934011699	945.602382015860	573.983246578481	1023.287438708851	958.739803626674	298.982063453951	1109.260296058601	769.861449004628	543.192257666315	1067.349632969071	648.309987690151	613.078207672710	1154.754585169461	608.045949820430	531.777676913369	1172.977052939575	497.299885067306	558.067396415641	1076.321537089939	745.342278783584	337.644947820195	990.513622816083	624.665834199822	281.435971938618	1071.815544912829	550.222620138024	351.109079691356	1070.901828687539	478.500190400731	362.908355394467	1034.834416712193	405.832105448895	356.552229211848	935.099546520276	299.460444530668	308.766246959519	970.812261660868	185.921321606520	382.669605392960	1100.645392788845	421.141673510383	568.001998736320	978.713118571495	373.588916844752	620.659635455619	980.202764820254	260.480361669274	579.091637539195	791.044731674529	175.306484090141	536.208131559069	958.792478389395	140.879178386692	601.466868435473	846.895414431636	131.110813469728	621.150965825190	1029.544306292647	38.847184016172	645.661807791832	830.220134933752	38.121683706858	428.596709070266	900.185786772881	35.988153911223	344.112000198196	985.983297114621	95.567748339940	369.056753688384	1111.732712499334	42.584410363424	331.451591467153	1064.413569156082	1094.936960740217	127.480026267570	1307.002622625509	999.474453509208	137.991714493858	898.420860422081	1097.810008704418	715.475759375478	929.321901163126	838.855020121502	734.121107339966	
109	2.277714285714	797.183199346867	994.724033399629	443.024158274402	978.876219738608	1427.901739162827	260.846995946092	1068.539573973569	1364.725834047020	431.342522991160	970.077770984875	1438.252570919483	596.748109783414	952.365590808305	1493.025351621925	417.298240410528	1023.542313125749	946.387102223151	574.742938905429	1024.042870939732	958.908154978323	299.646937010797	1107.897306619505	771.348873116752	543.600081160940	1066.501175897813	649.676334699430	613.425363922854	1153.838112269955	609.828352045841	532.182701797973	1173.895157597060	500.707847291204	558.402255664246	1074.828777889913	744.560449368302	338.332446178183	988.115978466684	624.648203293735	281.362254357803	1068.232247001138	549.504980999856	351.397385696546	1066.659124571090	477.952579282990	363.163788008597	1030.478184827729	405.528864740123	356.633482935776	930.599297819971	299.363564001680	308.676313627001	965.766966534732	185.744147479953	382.637502323947	1105.165626362547	422.551364176350	568.451096377065	986.665487274696	368.656758546099	621.796271370749	993.859035896634	256.099018164408	579.715860714237	809.560618464684	159.574086682739	538.133205131608	979.648941264894	136.741852063572	601.905315324870	868.980074733796	119.206531570761	622.444076364044	1057.373555102967	40.058223128613	645.106396412899	824.909964682569	38.153346583855	428.527999086167	894.898859065996	35.975740446885	344.074483255748	980.714593462958	95.535655591678	369.031937961813	1106.486601196314	42.425293026755	331.435576891313	1069.754979231703	1097.101878907396	127.515841327034	1314.992082270245	1009.412411692474	139.138695876472	885.418221880032	1100.575835782121	714.352187666879	907.485091325632	840.941641331097	733.319787621003	
110	2.295285714286	796.696269116891	995.705895609686	441.405844417961	981.801132324022	1428.901252204977	261.703614568699	1068.858409804721	1365.247684128028	433.322953421643	968.181853558715	1438.698678321146	597.397900686152	953.139082118769	1493.742263290801	418.041826926076	1021.604391931920	947.313058814432	575.752515697249	1024.834727947275	959.211859902558	300.563550259264	1106.013823386602	772.500253821502	544.490120571878	1064.541029114288	650.849133442031	614.262049537896	1151.762905989325	611.123544970272	533.220262297454	1173.498321796208	504.009885588384	559.284347288392	1073.008104629273	743.815410822730	339.238505272729	985.265764630611	624.825005825365	281.363258344368	1064.056961320377	548.874851113009	351.735792374243	1061.734346310234	477.553919230585	363.439325868495	1025.599998632551	405.416462347242	356.706090679886	925.723126118407	299.330949469859	308.578943172600	960.539430011616	185.673327304188	382.588623658913	1108.886606449493	423.911769208258	569.429889892947	994.648858978752	363.181836782086	623.646151027821	1008.149458656677	251.553637420661	580.974751663348	830.038040706688	143.148269099684	540.763711558714	1001.806438200328	132.502153848219	602.955386945405	892.951725984116	106.982805771693	624.390767405680	1086.465053463872	41.845660962637	645.080667032674	819.605553873375	38.188747233967	428.448693398518	889.602957713668	35.961964097192	344.035604270044	975.431297994059	95.517135361743	368.988105202406	1101.229732461008	42.294845689097	331.419002866288	1074.705566054076	1099.148467177969	128.017989705973	1322.143837417478	1018.776478607977	140.703834376108	873.236845266277	1103.748798741443	713.071858197006	887.653589739879	843.741426168386	732.202727507161	
